<?xml version="1.0" standalone="no"?>
<!DOCTYPE svg PUBLIC "-//W3C//DTD SVG 20010904//EN"
 "http://www.w3.org/TR/2001/REC-SVG-20010904/DTD/svg10.dtd">
<svg version="1.0" xmlns="http://www.w3.org/2000/svg"
 width="260.000000pt" height="260.000000pt" viewBox="0 0 260.000000 260.000000"
 preserveAspectRatio="xMidYMid meet">
<metadata>
Created by potrace 1.11, written by Peter Selinger 2001-2013
</metadata>
<g transform="translate(0.000000,260.000000) scale(0.100000,-0.100000)"
fill="#000000" stroke="none">
<path d="M190 1545 l0 -735 109 0 c78 0 110 4 113 13 2 6 4 100 3 207 l-1 195
50 55 c126 135 147 159 202 218 l59 63 66 -123 c37 -68 92 -170 122 -228 31
-58 91 -170 134 -250 l78 -145 138 -3 c75 -1 137 0 137 3 0 7 -370 659 -407
717 -12 21 -23 39 -23 42 0 2 -20 39 -44 81 l-44 78 41 45 c23 25 49 53 57 61
8 9 44 48 79 86 35 39 108 117 161 175 53 58 112 122 130 143 l32 37 -149 0
-150 0 -54 -62 c-29 -35 -56 -65 -59 -68 -3 -3 -27 -32 -55 -65 -27 -33 -62
-73 -76 -90 -122 -136 -231 -273 -318 -402 -57 -84 -104 -153 -105 -153 -1 0
-1 188 -1 418 l0 417 -112 3 -113 3 0 -736z"/>
<path d="M1820 1824 c-232 -62 -370 -255 -370 -519 1 -207 100 -380 265 -460
89 -44 116 -49 250 -49 88 0 123 4 175 22 109 38 183 97 233 187 l25 44 -27
10 c-36 14 -163 61 -165 61 -2 0 -12 -19 -24 -43 -12 -24 -30 -51 -40 -60 -74
-67 -272 -69 -371 -4 -47 31 -89 110 -98 185 l-6 51 344 0 c189 0 359 0 378 0
l34 1 -6 108 c-13 236 -115 387 -307 455 -72 25 -216 31 -290 11z m235 -168
c86 -26 136 -98 148 -211 l4 -40 -263 0 c-144 0 -265 3 -269 6 -10 11 16 101
42 146 29 50 68 80 126 99 57 17 153 17 212 0z"/>
<path d="M190 405 l0 -85 1115 0 1115 0 0 85 0 85 -1115 0 -1115 0 0 -85z"/>
</g>
</svg>
