<?xml version="1.0" standalone="no"?>
<!DOCTYPE svg PUBLIC "-//W3C//DTD SVG 20010904//EN"
 "http://www.w3.org/TR/2001/REC-SVG-20010904/DTD/svg10.dtd">
<svg version="1.0" xmlns="http://www.w3.org/2000/svg"
 width="520.000000pt" height="520.000000pt" viewBox="0 0 520.000000 520.000000"
 preserveAspectRatio="xMidYMid meet">
<metadata>
Created by potrace 1.11, written by Peter Selinger 2001-2013
</metadata>
<g transform="translate(0.000000,520.000000) scale(0.100000,-0.100000)"
fill="#000000" stroke="none">
<path d="M869 4445 c-3 -2 -36 -7 -74 -10 -39 -3 -77 -8 -85 -10 -8 -2 -37 -6
-65 -9 -27 -3 -88 -10 -135 -16 -46 -5 -88 -10 -92 -10 -5 0 -8 -824 -8 -1830
l0 -1830 237 2 238 3 0 1853 c0 1020 -3 1856 -6 1858 -3 2 -8 2 -10 -1z"/>
<path d="M1994 3296 c-21 -24 -93 -101 -159 -172 -66 -70 -135 -143 -153 -163
-94 -101 -152 -163 -216 -231 -69 -72 -274 -292 -369 -395 -25 -27 -73 -79
-106 -114 l-61 -63 43 -52 c59 -71 79 -95 102 -120 11 -12 40 -46 65 -76 39
-46 137 -162 339 -399 25 -30 51 -59 56 -65 6 -6 73 -85 149 -176 77 -91 156
-183 175 -205 20 -22 50 -57 66 -76 17 -20 72 -87 124 -148 l95 -111 299 0
299 0 -38 48 c-21 26 -41 49 -44 52 -5 4 -143 164 -220 254 -14 16 -29 34 -35
40 -5 6 -39 45 -75 86 -36 41 -69 80 -75 86 -13 15 -91 104 -216 249 -56 66
-105 122 -108 125 -4 3 -46 52 -96 110 -49 58 -92 107 -95 110 -3 3 -30 34
-60 70 -60 70 -59 69 -110 127 -82 92 -86 69 27 185 55 57 113 117 129 134 31
32 425 442 509 529 28 29 123 128 212 221 88 93 165 172 169 177 4 4 -126 7
-288 7 l-295 0 -39 -44z"/>
<path d="M3110 3334 c0 -3 21 -27 48 -54 26 -26 124 -128 217 -226 94 -97 198
-206 232 -242 65 -68 374 -390 457 -476 26 -28 73 -77 104 -108 l55 -57 -27
-36 c-15 -19 -35 -43 -45 -53 -9 -9 -46 -51 -81 -92 -35 -41 -108 -124 -161
-185 -52 -60 -107 -123 -120 -139 -13 -16 -29 -34 -34 -40 -6 -6 -57 -65 -114
-131 -58 -66 -108 -121 -113 -123 -4 -2 -8 -7 -8 -12 0 -4 -14 -23 -31 -41
-18 -19 -72 -81 -122 -139 -90 -104 -184 -213 -222 -256 -11 -12 -40 -46 -64
-74 -25 -29 -50 -58 -55 -64 -6 -6 -20 -22 -30 -34 l-19 -22 301 0 301 0 117
138 c64 75 128 151 143 167 14 17 76 89 136 160 60 72 120 141 131 155 20 23
207 241 258 300 11 14 46 55 76 90 30 36 61 72 70 81 8 9 24 27 34 40 17 22
87 105 143 169 63 74 103 125 101 131 -2 4 -62 69 -134 146 -72 76 -158 167
-190 202 -32 35 -81 88 -109 116 -27 29 -74 79 -104 111 -55 60 -236 255 -371
399 -42 44 -102 108 -135 143 l-58 62 -289 0 c-158 0 -288 -3 -288 -6z"/>
</g>
</svg>
