# Blender v2.90.0 OBJ File: 'planet.blend'
# www.blender.org
mtllib comet.mtl
o Icosphere.001_Icosphere.003
v -0.011302 -0.882450 -0.110301
v 0.522041 -0.447418 0.514664
v -0.191929 -0.519853 0.953009
v -0.669009 -0.470922 -0.113880
v 0.023934 -0.287171 -0.749254
v 0.576173 -0.517692 -0.365950
v 0.482913 0.350321 1.011745
v -0.564411 0.404088 0.699722
v -0.620374 0.213640 -0.499789
v 0.232427 0.385941 -1.027505
v 0.888653 0.492587 -0.054674
v -0.030009 0.867010 0.124022
v -0.171375 -0.630635 0.571368
v 0.438726 -0.918679 0.439174
v 0.357121 -0.478576 0.735874
v 0.957360 -0.629317 0.010678
v 0.420801 -0.901773 -0.386573
v -0.434986 -0.903089 -0.161274
v -0.714816 -0.483981 0.622769
v -0.429013 -0.816878 -0.309485
v -0.832199 -0.461206 -0.549529
v 0.101768 -0.553192 -0.856661
v 0.843496 0.203932 0.359301
v 0.917359 -0.090436 -0.446955
v 0.018390 -0.010589 0.827040
v 0.528145 -0.007874 0.711809
v -0.961397 0.054225 0.299766
v -0.612160 -0.072537 0.762432
v -0.705901 0.225720 -0.739409
v -0.973746 0.016109 -0.316359
v 0.566850 0.139205 -1.064008
v 0.023587 0.079991 -0.866820
v 0.674411 0.516065 0.559197
v -0.509137 0.489034 0.750229
v -0.894241 0.613810 0.087022
v -0.345612 0.564038 -0.734118
v 0.628937 0.412762 -0.596819
v 0.308732 0.770159 0.532137
v 0.629733 0.864554 0.143661
v -0.483789 0.663101 0.338028
v -0.229476 0.819336 -0.007441
v 0.508532 0.878037 -0.734062
vt 0.818181 0.000000
vt 0.772726 0.078731
vt 0.863635 0.078731
vt 0.727272 0.157461
vt 0.681818 0.078731
vt 0.636363 0.157461
vt 0.090909 0.000000
vt 0.045454 0.078731
vt 0.136363 0.078731
vt 0.272727 0.000000
vt 0.227273 0.078731
vt 0.318182 0.078731
vt 0.454545 0.000000
vt 0.409090 0.078731
vt 0.500000 0.078731
vt 0.681818 0.236191
vt 0.909090 0.157461
vt 0.818181 0.157461
vt 0.863635 0.236191
vt 0.181818 0.157461
vt 0.090909 0.157461
vt 0.136363 0.236191
vt 0.363636 0.157461
vt 0.272727 0.157461
vt 0.318182 0.236191
vt 0.545454 0.157461
vt 0.454545 0.157461
vt 0.500000 0.236191
vt 0.772726 0.236191
vt 0.954545 0.236191
vt 0.227273 0.236191
vt 0.409090 0.236191
vt 0.590909 0.236191
vt 0.818181 0.314921
vt 0.727272 0.314921
vt 0.772726 0.393651
vt 1.000000 0.314921
vt 0.909091 0.314921
vt 0.954545 0.393651
vt 0.272727 0.314921
vt 0.181818 0.314921
vt 0.227273 0.393651
vt 0.454545 0.314921
vt 0.363636 0.314921
vt 0.409090 0.393651
vt 0.636363 0.314921
vt 0.545454 0.314921
vt 0.590909 0.393651
vt 0.500000 0.393651
vt 0.545454 0.472382
vt 0.318182 0.393651
vt 0.363636 0.472382
vt 0.136363 0.393651
vt 0.181818 0.472382
vt 0.090909 0.314921
vt 0.863635 0.393651
vt 0.909090 0.472382
vt 0.681818 0.393651
vt 0.727272 0.472382
vt 0.045454 0.236191
vt 0.000000 0.157461
vt 0.590909 0.078731
vt 0.636363 0.000000
vn -0.3703 -0.8963 0.2441
vn 0.6932 -0.2319 0.6824
vn 0.0039 -0.9377 0.3473
vn 0.1018 -0.8617 -0.4971
vn -0.1078 -0.9892 -0.0995
vn 0.7088 -0.1876 0.6800
vn 0.3613 0.0806 0.9290
vn -0.8923 -0.4469 -0.0634
vn -0.1760 -0.2321 -0.9566
vn 0.6094 -0.5733 -0.5477
vn 0.7920 -0.2590 0.5529
vn -0.1255 0.2868 0.9498
vn -0.8557 -0.5151 0.0490
vn -0.2216 -0.2976 -0.9286
vn 0.5958 -0.5809 -0.5546
vn 0.4787 0.7394 0.4734
vn -0.8668 0.4762 0.1478
vn -0.3097 0.7121 -0.6301
vn -0.2156 0.5865 -0.7807
vn 0.6370 0.6578 -0.4020
vn 0.0033 0.9999 0.0149
vn 0.9685 0.2121 -0.1305
vn 0.7359 -0.0092 -0.6770
vn -0.1717 0.9806 -0.0951
vn -0.3327 0.9051 -0.2648
vn -0.8086 0.5834 -0.0757
vn -0.3350 0.9263 0.1723
vn -0.2564 0.9375 0.2352
vn -0.3871 0.7883 0.4782
vn -0.2168 0.8940 0.3921
vn -0.2126 0.9048 0.3690
vn -0.0741 0.7369 0.6720
vn -0.0033 0.9723 0.2335
vn 0.4511 0.7071 0.5445
vn 0.8515 0.4433 0.2802
vn 0.8272 0.3412 -0.4465
vn 0.8557 0.3888 -0.3414
vn 0.4825 0.7264 -0.4894
vn -0.4800 -0.1282 -0.8679
vn -0.1382 0.1624 -0.9770
vn -0.6610 0.6997 0.2712
vn -0.6024 0.5000 -0.6221
vn -0.9922 0.1237 0.0122
vn -0.7948 0.2967 0.5294
vn -0.7870 0.1573 0.5966
vn -0.1058 0.0410 0.9935
vn -0.2706 -0.1392 0.9526
vn 0.9287 -0.1621 0.3336
vn 0.7502 -0.0169 0.6610
vn 0.9055 0.2954 0.3047
vn -0.3017 -0.2737 -0.9133
vn -0.3352 -0.0565 -0.9405
vn -0.9209 -0.1197 -0.3710
vn -0.4026 0.8957 0.1889
vn -0.8468 0.0087 -0.5318
vn -0.8583 -0.4071 0.3124
vn -0.7666 0.1587 0.6222
vn -0.7988 -0.0049 0.6016
vn -0.5353 -0.1487 0.8315
vn 0.1763 -0.6188 0.7655
vn 0.2205 -0.0303 0.9749
vn 0.7914 -0.2593 0.5535
vn 0.9951 -0.0164 0.0971
vn 0.9921 0.1151 0.0489
vn 0.5095 -0.5347 -0.6742
vn 0.7052 -0.2496 -0.6637
vn -0.1318 -0.8369 -0.5312
vn -0.7309 0.0606 -0.6798
vn -0.0620 -0.6056 -0.7933
vn -0.4090 -0.7815 -0.4711
vn -0.8252 -0.4796 0.2984
vn -0.8805 -0.4699 -0.0631
vn -0.2024 -0.8919 0.4045
vn -0.2286 -0.9382 0.2600
vn 0.6509 -0.2244 -0.7253
vn 0.4691 -0.8827 -0.0283
vn -0.0569 -0.9982 -0.0192
vn 0.1828 -0.9415 0.2831
vn -0.0911 -0.5682 0.8178
vn 0.7954 -0.2304 0.5606
usemtl None
s off
f 1/1/1 14/2/1 13/3/1
f 2/4/2 14/5/2 16/6/2
f 1/7/3 13/8/3 18/9/3
f 1/10/4 18/11/4 20/12/4
f 1/13/5 20/14/5 17/15/5
f 2/4/6 16/6/6 23/16/6
f 3/17/7 15/18/7 25/19/7
f 4/20/8 19/21/8 27/22/8
f 5/23/9 21/24/9 29/25/9
f 6/26/10 22/27/10 31/28/10
f 2/4/11 23/16/11 26/29/11
f 3/17/12 25/19/12 28/30/12
f 4/20/13 27/22/13 30/31/13
f 5/23/14 29/25/14 32/32/14
f 6/26/15 31/28/15 24/33/15
f 7/34/16 33/35/16 38/36/16
f 8/37/17 34/38/17 40/39/17
f 9/40/18 35/41/18 41/42/18
f 10/43/19 36/44/19 42/45/19
f 11/46/20 37/47/20 39/48/20
f 39/48/21 42/49/21 12/50/21
f 39/48/22 37/47/22 42/49/22
f 37/47/23 10/43/23 42/49/23
f 42/45/24 41/51/24 12/52/24
f 42/45/25 36/44/25 41/51/25
f 36/44/26 9/40/26 41/51/26
f 41/42/27 40/53/27 12/54/27
f 41/42/28 35/41/28 40/53/28
f 35/41/29 8/55/29 40/53/29
f 40/39/30 38/56/30 12/57/30
f 40/39/31 34/38/31 38/56/31
f 34/38/32 7/34/32 38/56/32
f 38/36/33 39/58/33 12/59/33
f 38/36/34 33/35/34 39/58/34
f 33/35/35 11/46/35 39/58/35
f 24/33/36 37/47/36 11/46/36
f 24/33/37 31/28/37 37/47/37
f 31/28/38 10/43/38 37/47/38
f 32/32/39 36/44/39 10/43/39
f 32/32/40 29/25/40 36/44/40
f 29/25/41 9/40/41 36/44/41
f 30/31/42 35/41/42 9/40/42
f 30/31/43 27/22/43 35/41/43
f 27/22/44 8/55/44 35/41/44
f 28/30/45 34/38/45 8/37/45
f 28/30/46 25/19/46 34/38/46
f 25/19/47 7/34/47 34/38/47
f 26/29/48 33/35/48 7/34/48
f 26/29/49 23/16/49 33/35/49
f 23/16/50 11/46/50 33/35/50
f 31/28/51 32/32/51 10/43/51
f 31/28/52 22/27/52 32/32/52
f 22/27/53 5/23/53 32/32/53
f 29/25/54 30/31/54 9/40/54
f 29/25/55 21/24/55 30/31/55
f 21/24/56 4/20/56 30/31/56
f 27/22/57 28/60/57 8/55/57
f 27/22/58 19/21/58 28/60/58
f 19/21/59 3/61/59 28/60/59
f 25/19/60 26/29/60 7/34/60
f 25/19/61 15/18/61 26/29/61
f 15/18/62 2/4/62 26/29/62
f 23/16/63 24/33/63 11/46/63
f 23/16/64 16/6/64 24/33/64
f 16/6/65 6/26/65 24/33/65
f 17/15/66 22/27/66 6/26/66
f 17/15/67 20/14/67 22/27/67
f 20/14/68 5/23/68 22/27/68
f 20/12/69 21/24/69 5/23/69
f 20/12/70 18/11/70 21/24/70
f 18/11/71 4/20/71 21/24/71
f 18/9/72 19/21/72 4/20/72
f 18/9/73 13/8/73 19/21/73
f 13/8/74 3/61/74 19/21/74
f 16/6/75 17/62/75 6/26/75
f 16/6/76 14/5/76 17/62/76
f 14/5/77 1/63/77 17/62/77
f 13/3/78 15/18/78 3/17/78
f 13/3/79 14/2/79 15/18/79
f 14/2/80 2/4/80 15/18/80
