<svg xmlns="http://www.w3.org/2000/svg" xmlns:xlink="http://www.w3.org/1999/xlink" width="100%" height="100%" version="1.1" viewBox="0 0 260 260"><title>logo</title><g id="logo" fill-rule="evenodd" stroke="none" stroke-width="1"><path id="Ke" fill-rule="nonzero" d="M41.4257519,178.901408 L41.4257519,137.559155 L72.4445489,103.771831 L112.68515,178.901408 L140.56015,178.901408 L88.1635338,86.7732394 L138.464286,32 L108.283835,32 L62.3843985,85.5140845 L41.4257519,116.783099 L41.4257519,32 L19,32 L19,178.901408 L41.4257519,178.901408 Z M195.471805,181 C216.011278,181 232.568609,172.605634 239.694549,154.977465 L220.412594,147.842254 C215.801692,160.014085 209.723684,163.58169 195.681391,163.58169 C176.818609,163.58169 168.225564,155.607042 166.758459,135.250704 L241.790414,135.250704 C241.972663,131.783466 241.996434,130.061748 242,127.601806 L242,126.839193 C242,126.707572 242,126.573484 242,126.43662 C242,95.5873239 222.508459,76.0704225 194.423872,76.0704225 C165.50094,76.0704225 144.961466,97.2661972 144.961466,128.74507 C144.961466,160.433803 164.87218,181 195.471805,181 Z M220.62218,119.511268 L166.968045,119.511268 C168.854323,101.253521 177.866541,92.8591549 194.633459,92.8591549 C212.029135,92.8591549 219.783835,100.204225 220.62218,119.511268 Z"/><rect id="Rectangle" width="223" height="17" x="19" y="211"/></g></svg>